<svg xmlns="http://www.w3.org/2000/svg" width="256" height="256" viewBox="0 0 100 100"><rect width="100" height="100" rx="20" fill="#18181b"></rect><path fill="#2dd4bf" d="M81.59 73.27Q82.31 74.88 82.31 76.14L82.31 76.14Q82.31 78.66 80.28 80.42Q78.26 82.17 75.65 82.17L75.65 82.17Q73.94 82.17 72.41 81.23Q70.88 80.28 70.07 78.39L70.07 78.39L65.30 67.78L34.79 67.78L30.02 78.39Q29.21 80.28 27.73 81.23Q26.24 82.17 24.44 82.17L24.44 82.17Q21.83 82.17 19.76 80.42Q17.69 78.66 17.69 76.14L17.69 76.14Q17.69 74.88 18.41 73.27L18.41 73.27L42.71 22.23Q43.70 20.08 45.68 18.95Q47.66 17.83 49.91 17.83L49.91 17.83Q52.25 17.83 54.23 18.99Q56.21 20.16 57.29 22.23L57.29 22.23L81.59 73.27ZM50.09 33.76L39.56 57.16L60.53 57.16L50.09 33.76Z"></path></svg>